<svg version="1.1" id="Layer_1" xmlns="http://www.w3.org/2000/svg" xmlns:xlink="http://www.w3.org/1999/xlink" x="0px" y="0px"
	 width="100%" viewBox="0 0 4400 1600" enable-background="new 0 0 4400 1600" xml:space="preserve">
<path fill="#F9F9F8" opacity="1.000000" stroke="none" 
	d="
M3070.000000,1602.000000 
	C2046.666626,1602.000000 1024.333374,1602.000000 2.000000,1602.000000 
	C2.000000,1068.666626 2.000000,535.333313 2.000000,2.000000 
	C1468.666626,2.000000 2935.333252,2.000000 4402.000000,2.000000 
	C4402.000000,535.333313 4402.000000,1068.666626 4402.000000,1602.000000 
	C3958.333252,1602.000000 3514.666748,1602.000000 3070.000000,1602.000000 
M12.240194,1542.475586 
	C12.528448,1544.694580 12.816701,1546.913574 13.131433,1549.336426 
	C23.517054,1549.336426 33.342125,1549.336426 44.450611,1549.336426 
	C44.450611,1513.299805 44.450611,1477.845825 44.450611,1442.413330 
	C47.000729,1442.002319 48.294510,1441.611084 49.588284,1441.611084 
	C1483.827759,1441.582520 2918.067139,1441.579834 4352.306641,1441.597290 
	C4353.624512,1441.597290 4354.946289,1441.874634 4356.256348,1442.087524 
	C4356.535645,1442.132812 4356.773926,1442.456421 4357.021973,1442.662231 
	C4357.279297,1442.875488 4357.524902,1443.101807 4358.691895,1444.129028 
	C4358.691895,1478.564453 4358.691895,1513.755005 4358.691895,1549.375488 
	C4369.489258,1549.375488 4379.307617,1549.375488 4389.748535,1549.375488 
	C4389.748535,1466.364624 4389.748535,1383.921265 4389.748535,1300.617310 
	C4379.123047,1300.146851 4369.065430,1299.994507 4358.064941,1300.695679 
	C4358.064941,1337.135254 4358.064941,1372.333618 4358.064941,1406.981689 
	C4356.529297,1407.817383 4355.988281,1408.335815 4355.403809,1408.389893 
	C4353.089844,1408.604736 4350.762695,1408.782104 4348.440430,1408.781860 
	C2914.557617,1408.622559 1480.674683,1408.447876 46.791756,1408.257446 
	C46.483814,1408.257446 46.139076,1408.067993 45.878414,1407.876221 
	C45.623131,1407.688232 45.453362,1407.383911 44.280148,1405.951050 
	C44.280148,1398.217651 44.280144,1389.279053 44.280144,1380.340454 
	C44.280144,1371.674316 44.280144,1363.008301 44.280144,1354.342163 
	C44.280140,1345.342773 44.480362,1336.337524 44.223263,1327.345459 
	C43.971302,1318.533081 45.459309,1309.585083 43.163216,1301.023926 
	C32.673069,1301.023926 22.862679,1301.023926 12.238752,1301.023926 
	C12.238752,1381.378296 12.238752,1460.981812 12.240194,1542.475586 
M44.272083,77.038551 
	C44.272083,70.159065 44.272083,63.279575 44.272083,55.484871 
	C35.281399,55.484871 27.680691,55.429298 20.081705,55.519173 
	C17.839233,55.545689 15.601622,55.983150 12.843237,56.289970 
	C12.843237,138.869110 12.843237,220.996033 12.843237,303.434937 
	C23.512854,303.434937 33.573608,303.434937 44.542183,303.434937 
	C44.542183,267.421478 44.542183,232.223450 44.542183,196.644653 
	C1482.806030,196.644653 2920.139404,196.644653 4358.346191,196.644653 
	C4358.346191,206.303299 4358.346191,215.244873 4358.346191,224.186432 
	C4358.346191,232.852539 4358.346191,241.518661 4358.346191,250.184769 
	C4358.346191,259.184204 4358.265137,268.184570 4358.369629,277.182770 
	C4358.472168,286.017151 4357.852539,294.909607 4358.829590,303.502472 
	C4369.934082,303.502472 4379.758789,303.502472 4389.452637,303.502472 
	C4391.351562,288.722626 4390.699219,63.477928 4388.787598,56.184895 
	C4379.025391,56.184895 4369.224121,56.184895 4358.346191,56.184895 
	C4358.346191,68.791542 4358.346191,80.711021 4358.346191,92.630508 
	C4358.346191,104.296425 4358.471191,115.964050 4358.312012,127.627800 
	C4358.150391,139.462265 4359.020996,151.354172 4357.712402,163.294037 
	C2919.610107,163.294037 1482.529053,163.294037 44.272419,163.294037 
	C44.272419,134.827530 44.272419,106.929214 44.272083,77.038551 
M1129.000000,47.845203 
	C2081.250000,47.719048 3033.500000,47.592930 3985.750000,47.447586 
	C3986.031738,47.447544 3986.330566,47.180099 3986.590088,46.993816 
	C3986.859375,46.800915 3987.090820,46.554935 3987.489746,46.196201 
	C3987.489746,36.495167 3987.489746,26.668890 3987.489746,16.958912 
	C3975.378418,14.959123 408.114380,15.434915 400.681030,17.378752 
	C400.681030,27.155634 400.681030,36.973370 400.681030,47.845020 
	C643.216980,47.845020 885.108459,47.845020 1129.000000,47.845203 
M1401.000000,1589.632446 
	C2262.578369,1589.506348 3124.156738,1589.380127 3985.735107,1589.234131 
	C3986.015869,1589.234131 3986.308594,1588.947876 3986.573730,1588.763184 
	C3986.846191,1588.573120 3987.091309,1588.343872 3987.480957,1588.022339 
	C3987.480957,1578.288208 3987.480957,1568.457275 3987.480957,1558.747070 
	C3975.288574,1556.699707 408.103241,1557.212891 400.689453,1559.209351 
	C400.689453,1568.970093 400.689453,1578.774170 400.689453,1589.631958 
	C733.900085,1589.631958 1066.450073,1589.631958 1401.000000,1589.632446 
M2117.837646,805.320435 
	C2120.409180,811.091858 2122.794678,816.954651 2125.579834,822.621094 
	C2166.766357,906.414001 2232.244141,961.922119 2321.538574,988.535339 
	C2374.083252,1004.195740 2427.786377,1005.649292 2481.781250,996.316650 
	C2552.018066,984.176636 2613.331299,953.699219 2664.555908,904.368958 
	C2727.739502,843.521912 2759.286377,767.882080 2763.563232,680.796631 
	C2766.457031,621.879272 2755.293457,565.411682 2729.667480,512.163330 
	C2691.549072,432.956696 2630.582275,378.921906 2548.041260,349.065796 
	C2516.768066,337.753967 2484.322754,332.668182 2451.235107,331.015839 
	C2411.017578,329.007477 2371.140625,331.889587 2332.636475,343.815674 
	C2230.026855,375.597321 2157.060059,440.840454 2117.319336,540.992737 
	C2082.690674,628.262451 2082.289307,716.251587 2117.837646,805.320435 
M1858.648926,619.665344 
	C1887.378540,597.994995 1906.286499,569.706238 1914.910522,534.811707 
	C1920.651611,511.581543 1921.317139,487.952545 1917.609985,464.332031 
	C1912.090210,429.162109 1895.569702,400.502563 1866.479980,379.396698 
	C1850.673340,367.928406 1833.323120,359.689850 1814.759277,353.927399 
	C1781.025513,343.455963 1746.331543,340.106964 1711.179932,340.141571 
	C1657.848267,340.194092 1604.516479,340.151581 1551.184814,340.149445 
	C1548.254150,340.149353 1545.323364,340.149445 1542.038818,340.149445 
	C1542.038818,343.860840 1542.038818,346.703003 1542.038818,349.945129 
	C1554.268066,349.369171 1561.405273,356.480804 1567.252075,365.462799 
	C1575.538696,378.192627 1578.066895,392.375427 1578.061157,407.339417 
	C1577.996216,579.000854 1578.020874,750.662354 1578.011353,922.323853 
	C1578.011108,925.655823 1578.070190,929.003235 1577.789307,932.317078 
	C1576.494995,947.590454 1572.020752,961.619812 1561.693970,973.401733 
	C1557.091553,978.652466 1551.869751,982.323914 1544.528320,982.057312 
	C1543.690796,982.026855 1542.828491,982.679443 1541.501099,983.203430 
	C1541.749756,986.109680 1541.986694,988.877441 1542.219849,991.602295 
	C1588.597900,991.602295 1634.164062,991.602295 1680.103027,991.602295 
	C1680.103027,988.368164 1680.103027,985.549683 1680.103027,982.111877 
	C1668.046021,983.279785 1661.604614,976.130188 1655.821045,967.437378 
	C1646.976318,954.143677 1644.037476,939.468872 1644.050293,923.806396 
	C1644.120361,838.142334 1644.081909,752.478210 1644.080688,666.814148 
	C1644.080688,663.876831 1644.080566,660.939514 1644.080566,657.613525 
	C1656.205078,659.141785 1667.382812,661.195068 1678.635254,661.758240 
	C1687.123657,662.183105 1692.260010,665.323181 1697.025513,672.551636 
	C1751.839722,755.699768 1807.048096,838.588013 1862.140381,921.552795 
	C1871.382202,935.470154 1881.577637,948.564819 1893.704834,960.155396 
	C1908.162476,973.973022 1924.129395,984.930054 1944.108276,989.076904 
	C1967.511108,993.934448 1991.104858,991.313477 2015.005859,992.096924 
	C2015.005859,988.237854 2015.005859,985.421387 2015.005859,982.260681 
	C1997.527710,981.251892 1984.230591,972.521057 1973.121582,960.610718 
	C1963.376953,950.162842 1954.081787,939.145264 1945.804443,927.513733 
	C1932.487427,908.799866 1920.165894,889.377136 1907.434692,870.246704 
	C1861.856567,801.760132 1816.276978,733.274414 1770.732422,664.765442 
	C1769.179199,662.429016 1767.995361,659.847046 1766.409790,656.961914 
	C1799.634644,649.968445 1830.548584,640.150391 1858.648926,619.665344 
M596.098389,366.387390 
	C616.403320,366.426941 636.760498,365.567810 656.999207,366.745392 
	C679.640625,368.062805 701.831848,372.571564 722.928162,381.585876 
	C745.454529,391.211151 759.253235,407.898346 764.424561,431.713348 
	C765.895142,438.486176 766.707520,445.401978 767.928284,452.907410 
	C771.087097,452.765289 773.893311,452.639008 777.018188,452.498413 
	C777.018188,418.593475 777.018188,385.430725 777.018188,351.954254 
	C775.063599,351.567474 773.473450,351.014954 771.869385,350.971069 
	C747.046387,350.291382 723.155701,344.057831 699.074463,338.907654 
	C649.868347,328.384003 600.683533,326.571503 551.665100,339.988922 
	C522.031982,348.100128 494.869446,361.198029 472.168549,382.208954 
	C441.668335,410.438599 425.955627,445.591309 423.000427,487.108887 
	C419.476013,536.622864 434.875946,578.127869 472.079346,611.318665 
	C493.994568,630.870239 519.390686,644.568604 546.351379,655.588135 
	C584.227051,671.068848 622.184692,686.348755 660.102539,701.726440 
	C678.063293,709.010437 695.173462,717.910645 710.815918,729.395386 
	C733.608948,746.130249 752.342468,766.363464 759.607117,794.415527 
	C768.243347,827.764160 763.505554,860.171082 747.030823,890.162964 
	C724.276550,931.586548 687.357056,953.409485 641.888489,961.958557 
	C615.053589,967.004089 588.132324,965.548828 561.326660,961.379517 
	C536.345825,957.494141 512.861328,949.446899 492.171539,934.546204 
	C471.926453,919.965698 455.641541,902.339966 450.862427,876.713928 
	C449.409515,868.923096 448.759338,860.982544 447.715424,852.908813 
	C444.726715,852.908813 441.937256,852.908813 439.052734,852.908813 
	C439.052734,890.638184 439.052734,927.779297 439.052734,965.034485 
	C444.934692,965.781067 450.321777,965.901489 455.401611,967.212402 
	C472.459564,971.614319 489.378845,976.550354 506.405975,981.075623 
	C525.683350,986.199036 544.839111,992.013062 564.373718,995.879333 
	C592.333801,1001.413208 620.718933,1001.311584 648.960327,997.746460 
	C678.460815,994.022339 707.310730,987.610901 734.194214,974.214417 
	C776.940369,952.913208 807.873840,920.790649 823.106323,875.079895 
	C831.523254,849.821838 832.824463,823.622864 830.531250,797.056519 
	C826.961609,755.703125 808.180786,722.288940 778.475159,694.453796 
	C756.570251,673.928223 730.769348,659.425171 703.124390,648.184448 
	C664.912964,632.647400 626.517029,617.564331 588.313110,602.009277 
	C566.345886,593.065186 545.328186,582.250732 527.052734,566.860901 
	C510.679626,553.073120 497.784393,536.767517 492.629517,515.465027 
	C488.806976,499.668579 489.588898,483.773895 492.069916,467.820709 
	C497.410187,433.482422 513.477905,405.951996 542.517761,386.266174 
	C558.273926,375.585266 575.588501,369.316498 596.098389,366.387390 
M1042.669067,495.000885 
	C1042.669312,466.007660 1042.586548,437.014038 1042.735596,408.021576 
	C1042.767944,401.715210 1043.206787,395.346069 1044.188965,389.121094 
	C1047.733521,366.656311 1060.683594,352.260803 1079.738770,349.280304 
	C1079.738770,346.491455 1079.738770,343.678070 1079.738770,340.673523 
	C1033.030762,340.673523 986.851440,340.673523 940.593628,340.673523 
	C940.593628,344.064636 940.593628,346.915009 940.593628,350.282440 
	C951.826721,349.018219 958.933044,355.007385 964.144287,363.169739 
	C968.034302,369.262482 971.752869,375.911133 973.475037,382.828278 
	C975.618103,391.436401 976.426941,400.574371 976.439514,409.485474 
	C976.616760,535.121277 976.511963,660.757507 976.596619,786.393494 
	C976.616638,816.090637 978.127502,845.719177 985.988831,874.556641 
	C1002.731689,935.973999 1039.552490,977.817932 1103.161621,992.720032 
	C1155.898071,1005.074768 1208.860596,1005.195496 1261.607178,993.098450 
	C1303.551270,983.478943 1336.261230,960.446716 1357.893188,922.737915 
	C1367.217041,906.484558 1373.858276,889.144043 1378.238403,870.892883 
	C1384.975708,842.819946 1386.447021,814.297058 1386.422485,785.573914 
	C1386.333862,681.932556 1386.388428,578.291077 1386.389282,474.649628 
	C1386.389404,451.321960 1386.299316,427.993835 1386.423950,404.666809 
	C1386.511597,388.272797 1390.437866,373.072418 1400.947388,359.981018 
	C1405.797485,353.939148 1411.516235,349.939606 1419.589355,350.120758 
	C1420.481812,350.140808 1421.386841,349.603180 1422.862427,349.145325 
	C1422.677002,346.251587 1422.496094,343.430481 1422.323364,340.734680 
	C1386.390747,340.734680 1351.226318,340.734680 1315.509033,340.734680 
	C1315.739502,344.210815 1315.928589,347.063690 1316.132935,350.145294 
	C1327.059692,349.303528 1333.607178,355.249023 1339.173584,362.728760 
	C1348.496094,375.255249 1351.895752,389.576477 1351.883423,404.968323 
	C1351.838013,461.287903 1351.886230,517.607544 1351.865112,573.927185 
	C1351.836304,650.241638 1352.124023,726.558655 1351.542114,802.869080 
	C1351.336426,829.841187 1348.808960,856.816345 1340.022949,882.643677 
	C1325.247559,926.077271 1295.710815,953.702332 1250.844727,964.302917 
	C1220.547241,971.461365 1189.873169,971.229858 1159.553467,965.600708 
	C1105.797974,955.620422 1069.651978,924.917542 1053.475952,871.839966 
	C1044.924072,843.779053 1042.780884,814.963196 1042.731567,785.930481 
	C1042.567871,689.620911 1042.669189,593.310852 1042.669067,495.000885 
M3705.691162,386.498199 
	C3705.438965,387.115082 3705.171143,387.726135 3704.937012,388.349854 
	C3637.950439,566.827576 3571.050293,745.337891 3503.805908,923.718567 
	C3498.916748,936.688660 3492.260010,949.156311 3485.101562,961.061707 
	C3477.727295,973.325867 3467.712646,983.051636 3451.081055,982.368225 
	C3451.252686,985.878357 3451.390137,988.687866 3451.530029,991.542969 
	C3488.184814,991.542969 3524.063477,991.542969 3560.525391,991.542969 
	C3560.351562,988.175903 3560.204102,985.315796 3560.062500,982.571106 
	C3539.916260,980.009155 3530.169434,965.464783 3535.190674,946.170410 
	C3536.194092,942.314575 3537.526123,938.533081 3538.887207,934.782837 
	C3560.110107,876.305115 3581.350342,817.833801 3602.616211,759.371704 
	C3609.302246,740.990723 3616.074951,722.641357 3622.846680,704.172852 
	C3680.647461,704.172852 3737.919678,704.172852 3795.351318,704.172852 
	C3796.138184,705.752991 3797.012695,707.166687 3797.578369,708.694519 
	C3826.231445,786.065491 3854.919434,863.423706 3883.370361,940.869080 
	C3885.636230,947.036377 3887.078613,953.768738 3887.435059,960.318481 
	C3888.113525,972.775574 3881.025391,980.369141 3868.665283,981.768799 
	C3865.741455,982.099915 3862.786865,982.160217 3859.336914,982.377075 
	C3859.336914,985.545166 3859.336914,988.341064 3859.336914,991.447998 
	C3907.970947,991.447998 3956.088867,991.447998 4004.889404,991.447998 
	C4004.722168,988.027893 4004.584229,985.213623 4004.420898,981.871765 
	C3985.357178,983.353821 3973.405029,973.626892 3965.152100,958.611877 
	C3959.560547,948.438660 3954.040527,938.073486 3949.982178,927.234863 
	C3918.368164,842.803406 3887.114990,758.236816 3855.753174,673.710815 
	C3814.438721,562.359985 3773.130859,451.006714 3731.795898,339.663513 
	C3730.626953,336.514496 3729.187012,333.466248 3727.273438,328.956116 
	C3719.747314,348.907013 3712.938721,366.956482 3705.691162,386.498199 
M2860.822266,355.676575 
	C2876.106201,364.115326 2883.780762,378.309113 2889.613525,393.858765 
	C2964.378906,593.176331 3039.130859,792.499084 3113.896973,991.816528 
	C3115.133789,995.113159 3116.506836,998.358704 3118.407227,1003.103943 
	C3120.058350,998.879028 3121.045410,996.491211 3121.931396,994.066284 
	C3173.295898,853.475098 3224.648193,712.879395 3276.010254,572.287415 
	C3298.609863,510.425873 3321.381104,448.626373 3343.754639,386.683167 
	C3351.525146,365.170380 3365.571533,352.200226 3388.781982,350.043335 
	C3389.292480,349.995911 3389.740967,349.278442 3390.723877,348.444794 
	C3390.485107,345.980438 3390.210449,343.144806 3389.953857,340.497620 
	C3354.253418,340.497620 3319.343994,340.497620 3283.915039,340.497620 
	C3283.915039,343.706970 3283.915039,346.571869 3283.915039,349.566010 
	C3287.452393,350.621368 3291.021484,351.443726 3294.409668,352.739746 
	C3307.915771,357.905792 3312.401611,367.394623 3308.050537,381.299713 
	C3307.356201,383.518433 3306.550293,385.703827 3305.748291,387.887146 
	C3249.659180,540.567383 3193.568359,693.246948 3137.451660,845.916931 
	C3136.251221,849.183228 3134.745117,852.336975 3132.942383,856.576843 
	C3131.116943,852.053101 3129.672119,848.710449 3128.406982,845.301086 
	C3099.587891,767.650757 3070.802246,689.988159 3041.981445,612.338501 
	C3014.781494,539.055420 2987.637207,465.751648 2960.282715,392.526215 
	C2950.618896,366.656281 2960.400146,354.492096 2980.369141,350.049500 
	C2980.892334,349.933167 2981.293457,349.268677 2981.786621,348.828247 
	C2981.786621,346.250702 2981.786621,343.658112 2981.786621,340.605896 
	C2935.262207,340.605896 2889.061523,340.605896 2842.382324,340.605896 
	C2842.382324,343.767548 2842.382324,346.616791 2842.382324,349.286346 
	C2848.235352,351.195923 2853.882324,353.038330 2860.822266,355.676575 
M2092.062256,1194.479004 
	C2091.767334,1188.385254 2091.472168,1182.291504 2091.177246,1176.197632 
	C2091.612305,1176.121948 2092.047363,1176.046265 2092.482422,1175.970581 
	C2116.343506,1217.279175 2140.204346,1258.587891 2163.697266,1299.259033 
	C2170.073730,1299.259033 2175.305420,1299.259033 2180.439941,1299.259033 
	C2182.392578,1287.483765 2181.938965,1157.535522 2179.980225,1150.542236 
	C2175.410645,1150.542236 2170.823486,1150.542236 2165.516602,1150.542236 
	C2165.516602,1159.221191 2165.516846,1167.519409 2165.516846,1175.817627 
	C2165.516846,1183.815308 2165.516846,1191.812988 2165.516846,1199.810669 
	C2165.516846,1208.141479 2165.468994,1216.472778 2165.530518,1224.803101 
	C2165.589355,1232.799805 2166.009521,1240.801636 2165.813477,1248.790039 
	C2165.618896,1256.718506 2168.000000,1264.717163 2165.855957,1274.057007 
	C2141.363037,1231.697510 2117.659180,1190.702026 2094.634766,1150.882080 
	C2087.666504,1150.882080 2082.507812,1150.882080 2077.353516,1150.882080 
	C2077.353516,1200.786987 2077.353516,1249.962036 2077.353516,1299.430054 
	C2082.577881,1299.430054 2087.179932,1299.430054 2092.132812,1299.430054 
	C2092.132812,1264.861328 2092.132812,1230.598145 2092.062256,1194.479004 
M2940.010742,1278.951416 
	C2963.249023,1312.233398 3024.216064,1313.344482 3043.819092,1262.025757 
	C3053.450928,1236.811035 3053.607910,1210.952515 3043.336670,1185.951416 
	C3033.334961,1161.605591 3014.851807,1147.961304 2987.779541,1147.765869 
	C2961.597900,1147.576782 2940.912354,1160.816528 2931.306885,1185.977905 
	C2919.260010,1217.533691 2920.667969,1248.546753 2940.010742,1278.951416 
M1377.157227,1221.330688 
	C1376.847656,1237.838501 1378.921387,1253.920288 1386.699951,1268.743530 
	C1397.813599,1289.922607 1415.054810,1301.786499 1439.392822,1302.115234 
	C1464.149048,1302.449585 1482.593018,1291.186523 1493.341919,1269.356812 
	C1507.496460,1240.611084 1507.813721,1210.765381 1494.269897,1181.708496 
	C1483.788452,1159.221436 1465.258789,1147.676270 1440.093018,1147.759277 
	C1414.933838,1147.842285 1397.169678,1159.828857 1385.931152,1181.953735 
	C1379.945435,1193.737793 1377.634033,1206.435181 1377.157227,1221.330688 
M3206.231689,1152.380005 
	C3184.472656,1148.455200 3162.605225,1150.729126 3140.893799,1150.311279 
	C3138.979248,1164.399048 3139.537109,1292.453613 3141.356445,1299.144653 
	C3146.264160,1299.144653 3151.105469,1299.144653 3156.794922,1299.144653 
	C3156.794922,1277.761475 3156.794922,1256.930420 3156.794922,1235.635986 
	C3166.851318,1235.635986 3176.026855,1235.635986 3185.082031,1235.635986 
	C3197.612061,1257.366333 3209.877686,1278.637939 3221.739014,1299.208740 
	C3228.379883,1299.208740 3233.869629,1299.208740 3240.707031,1299.208740 
	C3227.691895,1276.961060 3215.236572,1255.670654 3202.440918,1233.798218 
	C3205.338135,1232.841797 3206.882812,1232.374268 3208.397949,1231.824951 
	C3227.751465,1224.807861 3237.012695,1211.354126 3236.682617,1190.757690 
	C3236.356201,1170.396240 3228.178955,1159.661011 3206.231689,1152.380005 
M1182.210083,1225.000000 
	C1182.210083,1249.574097 1182.210083,1274.148193 1182.210083,1299.312988 
	C1185.687256,1299.477905 1188.271484,1299.713379 1190.853516,1299.691040 
	C1193.409180,1299.668945 1195.962524,1299.386841 1199.417236,1299.159546 
	C1199.417236,1275.423096 1199.417236,1252.251587 1199.417236,1228.907837 
	C1223.779297,1228.907837 1247.184692,1228.907837 1271.481812,1228.907837 
	C1271.481812,1252.813354 1271.481812,1276.018921 1271.481812,1299.252197 
	C1277.270508,1299.252197 1282.151001,1299.252197 1287.282227,1299.252197 
	C1287.282227,1249.378418 1287.282227,1199.978394 1287.282227,1150.696045 
	C1281.669800,1150.696045 1276.815063,1150.696045 1270.930664,1150.696045 
	C1270.930664,1171.717407 1270.930664,1192.235352 1270.930664,1213.136230 
	C1246.720337,1213.136230 1223.557983,1213.136230 1199.038818,1213.136230 
	C1199.038818,1192.039551 1199.038818,1171.291504 1199.038818,1150.716064 
	C1192.795044,1150.716064 1187.929810,1150.716064 1183.317749,1150.716064 
	C1182.840576,1151.850220 1182.377197,1152.439453 1182.375122,1153.030273 
	C1182.293945,1176.353394 1182.254761,1199.676758 1182.210083,1225.000000 
M2311.629639,1279.796265 
	C2298.004150,1269.996582 2291.970459,1256.040527 2289.527100,1239.979614 
	C2286.754150,1221.754028 2287.922119,1204.006836 2296.669189,1187.518799 
	C2310.773926,1160.932007 2343.909180,1154.220947 2367.432617,1172.827881 
	C2368.893799,1173.983643 2370.373291,1175.116577 2372.044189,1176.415527 
	C2373.842773,1174.369873 2375.191162,1172.927002 2376.434570,1171.398315 
	C2377.858154,1169.648193 2379.187988,1167.822021 2380.482178,1166.128784 
	C2372.917969,1157.556030 2365.558105,1152.729370 2355.350586,1149.941895 
	C2328.571045,1142.628418 2290.689209,1151.075928 2276.223145,1191.712158 
	C2268.517822,1213.357056 2268.566162,1235.559570 2275.802246,1257.390015 
	C2289.103027,1297.516968 2333.792236,1314.618530 2370.911621,1294.243652 
	C2379.098877,1289.749878 2384.901855,1284.445435 2383.079346,1273.963135 
	C2382.405029,1270.085205 2382.970459,1265.991699 2382.970459,1261.996460 
	C2382.970459,1249.427002 2382.970459,1236.857544 2382.970459,1223.803711 
	C2366.612793,1223.803711 2351.131592,1223.803711 2335.263916,1223.803711 
	C2335.263916,1228.331543 2335.263916,1232.451660 2335.263916,1237.662354 
	C2346.295654,1237.662354 2356.766602,1237.662354 2367.629883,1237.662354 
	C2367.629883,1249.398071 2367.182861,1260.066406 2367.794189,1270.673706 
	C2368.172363,1277.229736 2365.302002,1280.519653 2359.878906,1282.817139 
	C2343.853516,1289.605835 2328.203369,1289.263672 2311.629639,1279.796265 
M3352.921875,1164.549805 
	C3371.524658,1164.549805 3390.127197,1164.549805 3409.041992,1164.549805 
	C3409.041992,1159.513672 3409.041992,1155.343628 3409.041992,1150.757812 
	C3380.794189,1150.757812 3353.036865,1150.757812 3324.939697,1150.757812 
	C3324.939697,1200.483887 3324.939697,1249.609009 3324.939697,1299.234131 
	C3353.924072,1299.234131 3382.385010,1299.234131 3411.317383,1299.234131 
	C3411.317383,1294.556519 3411.317383,1290.357178 3411.317383,1285.275269 
	C3388.277588,1285.275269 3365.426270,1285.275269 3342.132812,1285.275269 
	C3342.132812,1265.913086 3342.132812,1247.429565 3342.132812,1227.954712 
	C3361.015137,1227.954712 3379.451416,1227.954712 3398.041748,1227.954712 
	C3398.041748,1222.747314 3398.041748,1218.544067 3398.041748,1213.425781 
	C3379.023193,1213.425781 3360.523926,1213.425781 3342.294434,1213.425781 
	C3342.294434,1196.643188 3342.294434,1180.788208 3342.294434,1164.549927 
	C3345.578369,1164.549927 3348.231934,1164.549927 3352.921875,1164.549805 
M1640.463257,1150.308350 
	C1624.951172,1150.308350 1609.439209,1150.308350 1593.645874,1150.308350 
	C1593.645874,1200.536621 1593.645874,1249.720337 1593.645874,1299.028809 
	C1599.218628,1299.028809 1604.317383,1299.028809 1610.271484,1299.028809 
	C1610.271484,1278.848633 1610.271484,1259.337280 1610.271484,1239.846680 
	C1623.744263,1239.249023 1636.419312,1239.372925 1648.928955,1237.995483 
	C1679.098877,1234.672974 1695.087769,1211.553467 1688.713013,1181.942993 
	C1685.947388,1169.097656 1678.764648,1160.086914 1666.534790,1155.896362 
	C1658.751587,1153.229248 1650.410278,1152.190552 1640.463257,1150.308350 
M1794.149780,1280.905029 
	C1794.149780,1267.331787 1794.149780,1253.758545 1794.149780,1239.770508 
	C1797.626953,1239.555542 1800.211304,1239.347290 1802.799805,1239.244385 
	C1813.103882,1238.834717 1823.486084,1239.121216 1833.699097,1237.938599 
	C1859.206665,1234.985107 1873.877930,1218.773682 1874.060791,1194.308716 
	C1874.250122,1168.992065 1862.053345,1154.817261 1834.924194,1151.862549 
	C1816.204834,1149.823853 1797.215698,1150.262939 1778.134521,1149.587158 
	C1778.134521,1200.388672 1778.134521,1249.813477 1778.134521,1299.169678 
	C1783.620239,1299.169678 1788.477661,1299.169678 1794.149780,1299.169678 
	C1794.149780,1293.397827 1794.149780,1288.134766 1794.149780,1280.905029 
M2594.289795,1281.324341 
	C2588.562744,1277.391235 2582.835693,1273.458252 2576.613281,1269.184937 
	C2573.565186,1272.619141 2570.373047,1276.215820 2567.266357,1279.716187 
	C2576.591797,1289.607544 2584.678467,1295.005249 2596.266357,1298.609863 
	C2614.458252,1304.268677 2632.251221,1304.040527 2649.345947,1294.475342 
	C2673.739014,1280.826538 2676.036377,1242.177124 2651.208984,1227.877930 
	C2644.892334,1224.239868 2638.245605,1221.161621 2631.675293,1217.981201 
	C2621.810303,1213.205933 2611.629150,1209.020874 2602.051758,1203.734131 
	C2593.690674,1199.118896 2590.407959,1191.303589 2591.803467,1181.710571 
	C2593.106201,1172.757324 2598.845459,1167.066650 2606.860107,1164.823120 
	C2613.393555,1162.994263 2620.619629,1162.751953 2627.465088,1163.130737 
	C2638.054199,1163.716797 2646.508301,1169.966797 2655.033936,1176.287842 
	C2658.069824,1172.614990 2660.726807,1169.400635 2663.634521,1165.883057 
	C2660.618652,1163.246094 2658.509766,1161.144043 2656.148926,1159.379028 
	C2637.123291,1145.155029 2609.816406,1143.758423 2591.374023,1155.635742 
	C2570.082275,1169.348389 2568.333008,1200.814087 2588.543945,1214.976807 
	C2594.491699,1219.144653 2601.000977,1222.603760 2607.528809,1225.829346 
	C2617.354004,1230.684570 2627.593506,1234.714355 2637.341797,1239.709717 
	C2648.425781,1245.389526 2652.971191,1254.013184 2651.546143,1264.737061 
	C2650.111084,1275.536011 2642.489990,1283.222412 2630.659424,1286.096558 
	C2618.463867,1289.059204 2606.902344,1287.153564 2594.289795,1281.324341 
M1067.442871,1241.358398 
	C1077.732910,1247.695435 1080.202881,1257.346558 1077.663452,1268.233887 
	C1075.206909,1278.765625 1067.185425,1283.909668 1057.065674,1286.177124 
	C1040.274536,1289.939575 1025.494995,1285.305420 1012.016846,1275.351929 
	C1009.417175,1273.432129 1006.990356,1271.278442 1003.317261,1268.280518 
	C1001.744934,1270.460327 1000.407776,1272.336548 999.046875,1274.195312 
	C997.560181,1276.226074 996.051086,1278.240479 994.647095,1280.133423 
	C1011.155701,1298.517700 1035.222656,1304.945801 1056.883911,1301.288696 
	C1064.227173,1300.048950 1071.737183,1297.093750 1078.088501,1293.170166 
	C1100.414185,1279.379150 1103.245361,1243.351685 1078.884644,1228.447876 
	C1068.456177,1222.067749 1056.846069,1217.629883 1045.827026,1212.199707 
	C1039.576416,1209.119629 1032.885376,1206.561279 1027.353394,1202.469116 
	C1013.500366,1192.221436 1015.652710,1173.400146 1031.176514,1165.856689 
	C1038.589966,1162.254272 1046.433105,1161.768677 1054.563354,1162.932861 
	C1065.026978,1164.431274 1073.573486,1169.865967 1081.943726,1176.399414 
	C1085.139648,1172.575684 1087.819824,1169.369141 1090.386108,1166.298828 
	C1072.182495,1145.851685 1041.532715,1143.834595 1022.721313,1153.066162 
	C997.005676,1165.685669 993.974731,1201.372314 1017.123901,1216.220337 
	C1022.697327,1219.795166 1028.585205,1222.941772 1034.546631,1225.835693 
	C1045.011719,1230.915894 1055.645264,1235.649048 1067.442871,1241.358398 
M2786.493652,1232.999756 
	C2786.493652,1254.900024 2786.493652,1276.800171 2786.493652,1299.215698 
	C2792.584473,1299.215698 2797.694092,1299.215698 2803.721680,1299.215698 
	C2803.721680,1254.229126 2803.721680,1209.739380 2803.721680,1164.174316 
	C2819.377930,1164.174316 2834.146973,1164.174316 2848.585938,1164.174316 
	C2848.585938,1158.916260 2848.585938,1154.775391 2848.585938,1150.788818 
	C2812.355957,1150.788818 2776.892578,1150.788818 2741.270020,1150.788818 
	C2741.270020,1155.578979 2741.270020,1159.716431 2741.270020,1164.560791 
	C2756.392334,1164.560791 2770.933350,1164.560791 2786.493652,1164.560791 
	C2786.493652,1187.178833 2786.493652,1209.089233 2786.493652,1232.999756 
M1978.552368,1185.002686 
	C1978.480225,1173.506348 1978.712769,1161.995850 1978.421875,1150.868652 
	C1972.108887,1150.868652 1967.285889,1150.868652 1962.524414,1150.868652 
	C1962.524414,1200.684937 1962.524414,1249.832520 1962.524414,1299.200684 
	C1967.975586,1299.200684 1972.804810,1299.200684 1978.552368,1299.200684 
	C1978.552368,1261.479370 1978.552368,1224.240356 1978.552368,1185.002686 
z"/>
<path fill="#EABF44" opacity="1.000000" stroke="none" 
	d="
M12.239473,1541.530518 
	C12.238752,1460.981812 12.238752,1381.378296 12.238752,1301.023926 
	C22.862679,1301.023926 32.673069,1301.023926 43.163216,1301.023926 
	C45.459309,1309.585083 43.971302,1318.533081 44.223263,1327.345459 
	C44.480362,1336.337524 44.280140,1345.342773 44.280144,1354.342163 
	C44.280144,1363.008301 44.280144,1371.674316 44.280144,1380.340454 
	C44.280144,1389.279053 44.280148,1398.217651 44.280148,1405.951050 
	C45.453362,1407.383911 45.623131,1407.688232 45.878414,1407.876221 
	C46.139076,1408.067993 46.483814,1408.257446 46.791756,1408.257446 
	C1480.674683,1408.447876 2914.557617,1408.622559 4348.440430,1408.781860 
	C4350.762695,1408.782104 4353.089844,1408.604736 4355.403809,1408.389893 
	C4355.988281,1408.335815 4356.529297,1407.817383 4358.064941,1406.981689 
	C4358.064941,1372.333618 4358.064941,1337.135254 4358.064941,1300.695679 
	C4369.065430,1299.994507 4379.123047,1300.146851 4389.748535,1300.617310 
	C4389.748535,1383.921265 4389.748535,1466.364624 4389.748535,1549.375488 
	C4379.307617,1549.375488 4369.489258,1549.375488 4358.691895,1549.375488 
	C4358.691895,1513.755005 4358.691895,1478.564453 4358.691895,1444.129028 
	C4357.524902,1443.101807 4357.279297,1442.875488 4357.021973,1442.662231 
	C4356.773926,1442.456421 4356.535645,1442.132812 4356.256348,1442.087524 
	C4354.946289,1441.874634 4353.624512,1441.597290 4352.306641,1441.597290 
	C2918.067139,1441.579834 1483.827759,1441.582520 49.588284,1441.611084 
	C48.294510,1441.611084 47.000729,1442.002319 44.450611,1442.413330 
	C44.450611,1477.845825 44.450611,1513.299805 44.450611,1549.336426 
	C33.342125,1549.336426 23.517054,1549.336426 13.131433,1549.336426 
	C12.816701,1546.913574 12.528448,1544.694580 12.239473,1541.530518 
z"/>
<path fill="#EABF42" opacity="1.000000" stroke="none" 
	d="
M44.272251,78.034729 
	C44.272419,106.929214 44.272419,134.827530 44.272419,163.294037 
	C1482.529053,163.294037 2919.610107,163.294037 4357.712402,163.294037 
	C4359.020996,151.354172 4358.150391,139.462265 4358.312012,127.627800 
	C4358.471191,115.964050 4358.346191,104.296425 4358.346191,92.630508 
	C4358.346191,80.711021 4358.346191,68.791542 4358.346191,56.184895 
	C4369.224121,56.184895 4379.025391,56.184895 4388.787598,56.184895 
	C4390.699219,63.477928 4391.351562,288.722626 4389.452637,303.502472 
	C4379.758789,303.502472 4369.934082,303.502472 4358.829590,303.502472 
	C4357.852539,294.909607 4358.472168,286.017151 4358.369629,277.182770 
	C4358.265137,268.184570 4358.346191,259.184204 4358.346191,250.184769 
	C4358.346191,241.518661 4358.346191,232.852539 4358.346191,224.186432 
	C4358.346191,215.244873 4358.346191,206.303299 4358.346191,196.644653 
	C2920.139404,196.644653 1482.806030,196.644653 44.542183,196.644653 
	C44.542183,232.223450 44.542183,267.421478 44.542183,303.434937 
	C33.573608,303.434937 23.512854,303.434937 12.843237,303.434937 
	C12.843237,220.996033 12.843237,138.869110 12.843237,56.289970 
	C15.601622,55.983150 17.839233,55.545689 20.081705,55.519173 
	C27.680691,55.429298 35.281399,55.484871 44.272083,55.484871 
	C44.272083,63.279575 44.272083,70.159065 44.272251,78.034729 
z"/>
<path fill="#EABF42" opacity="1.000000" stroke="none" 
	d="
M1128.000000,47.845112 
	C885.108459,47.845020 643.216980,47.845020 400.681030,47.845020 
	C400.681030,36.973370 400.681030,27.155634 400.681030,17.378752 
	C408.114380,15.434915 3975.378418,14.959123 3987.489746,16.958912 
	C3987.489746,26.668890 3987.489746,36.495167 3987.489746,46.196201 
	C3987.090820,46.554935 3986.859375,46.800915 3986.590088,46.993816 
	C3986.330566,47.180099 3986.031738,47.447544 3985.750000,47.447586 
	C3033.500000,47.592930 2081.250000,47.719048 1128.000000,47.845112 
z"/>
<path fill="#EABF43" opacity="1.000000" stroke="none" 
	d="
M1400.000000,1589.632202 
	C1066.450073,1589.631958 733.900085,1589.631958 400.689453,1589.631958 
	C400.689453,1578.774170 400.689453,1568.970093 400.689453,1559.209351 
	C408.103241,1557.212891 3975.288574,1556.699707 3987.480957,1558.747070 
	C3987.480957,1568.457275 3987.480957,1578.288208 3987.480957,1588.022339 
	C3987.091309,1588.343872 3986.846191,1588.573120 3986.573730,1588.763184 
	C3986.308594,1588.947876 3986.015869,1589.234131 3985.735107,1589.234131 
	C3124.156738,1589.380127 2262.578369,1589.506348 1400.000000,1589.632202 
z"/>
<path fill="#030303" opacity="1.000000" stroke="none" 
	d="
M2117.559570,804.604370 
	C2082.289307,716.251587 2082.690674,628.262451 2117.319336,540.992737 
	C2157.060059,440.840454 2230.026855,375.597321 2332.636475,343.815674 
	C2371.140625,331.889587 2411.017578,329.007477 2451.235107,331.015839 
	C2484.322754,332.668182 2516.768066,337.753967 2548.041260,349.065796 
	C2630.582275,378.921906 2691.549072,432.956696 2729.667480,512.163330 
	C2755.293457,565.411682 2766.457031,621.879272 2763.563232,680.796631 
	C2759.286377,767.882080 2727.739502,843.521912 2664.555908,904.368958 
	C2613.331299,953.699219 2552.018066,984.176636 2481.781250,996.316650 
	C2427.786377,1005.649292 2374.083252,1004.195740 2321.538574,988.535339 
	C2232.244141,961.922119 2166.766357,906.414001 2125.579834,822.621094 
	C2122.794678,816.954651 2120.409180,811.091858 2117.559570,804.604370 
M2168.933350,739.735046 
	C2169.986572,743.237732 2170.965088,746.764954 2172.104248,750.239563 
	C2195.161621,820.586182 2234.416992,879.381104 2295.263672,922.742920 
	C2339.297363,954.123047 2387.795410,970.199036 2442.375488,966.439392 
	C2510.252930,961.763733 2568.151611,935.054016 2614.508057,885.773438 
	C2678.826416,817.397888 2703.622314,734.813293 2694.221924,642.285645 
	C2687.095215,572.135925 2659.706055,509.788544 2612.558350,457.162140 
	C2562.565186,401.359436 2501.846680,366.344940 2424.623047,365.229706 
	C2377.744385,364.552765 2334.118164,374.988037 2294.885254,401.127747 
	C2209.160889,458.243042 2167.067139,540.471313 2158.328369,641.282410 
	C2155.487061,674.060547 2159.875977,706.422668 2168.933350,739.735046 
z"/>
<path fill="#030303" opacity="1.000000" stroke="none" 
	d="
M1858.051758,620.055359 
	C1830.548584,640.150391 1799.634644,649.968445 1766.409790,656.961914 
	C1767.995361,659.847046 1769.179199,662.429016 1770.732422,664.765442 
	C1816.276978,733.274414 1861.856567,801.760132 1907.434692,870.246704 
	C1920.165894,889.377136 1932.487427,908.799866 1945.804443,927.513733 
	C1954.081787,939.145264 1963.376953,950.162842 1973.121582,960.610718 
	C1984.230591,972.521057 1997.527710,981.251892 2015.005859,982.260681 
	C2015.005859,985.421387 2015.005859,988.237854 2015.005859,992.096924 
	C1991.104858,991.313477 1967.511108,993.934448 1944.108276,989.076904 
	C1924.129395,984.930054 1908.162476,973.973022 1893.704834,960.155396 
	C1881.577637,948.564819 1871.382202,935.470154 1862.140381,921.552795 
	C1807.048096,838.588013 1751.839722,755.699768 1697.025513,672.551636 
	C1692.260010,665.323181 1687.123657,662.183105 1678.635254,661.758240 
	C1667.382812,661.195068 1656.205078,659.141785 1644.080566,657.613525 
	C1644.080566,660.939514 1644.080688,663.876831 1644.080688,666.814148 
	C1644.081909,752.478210 1644.120361,838.142334 1644.050293,923.806396 
	C1644.037476,939.468872 1646.976318,954.143677 1655.821045,967.437378 
	C1661.604614,976.130188 1668.046021,983.279785 1680.103027,982.111877 
	C1680.103027,985.549683 1680.103027,988.368164 1680.103027,991.602295 
	C1634.164062,991.602295 1588.597900,991.602295 1542.219849,991.602295 
	C1541.986694,988.877441 1541.749756,986.109680 1541.501099,983.203430 
	C1542.828491,982.679443 1543.690796,982.026855 1544.528320,982.057312 
	C1551.869751,982.323914 1557.091553,978.652466 1561.693970,973.401733 
	C1572.020752,961.619812 1576.494995,947.590454 1577.789307,932.317078 
	C1578.070190,929.003235 1578.011108,925.655823 1578.011353,922.323853 
	C1578.020874,750.662354 1577.996216,579.000854 1578.061157,407.339417 
	C1578.066895,392.375427 1575.538696,378.192627 1567.252075,365.462799 
	C1561.405273,356.480804 1554.268066,349.369171 1542.038818,349.945129 
	C1542.038818,346.703003 1542.038818,343.860840 1542.038818,340.149445 
	C1545.323364,340.149445 1548.254150,340.149353 1551.184814,340.149445 
	C1604.516479,340.151581 1657.848267,340.194092 1711.179932,340.141571 
	C1746.331543,340.106964 1781.025513,343.455963 1814.759277,353.927399 
	C1833.323120,359.689850 1850.673340,367.928406 1866.479980,379.396698 
	C1895.569702,400.502563 1912.090210,429.162109 1917.609985,464.332031 
	C1921.317139,487.952545 1920.651611,511.581543 1914.910522,534.811707 
	C1906.286499,569.706238 1887.378540,597.994995 1858.051758,620.055359 
M1644.075928,471.000000 
	C1644.075928,521.883911 1644.075928,572.767883 1644.075928,623.828735 
	C1669.800659,627.030334 1694.770386,626.598206 1719.675781,626.031250 
	C1731.564331,625.760620 1743.747925,624.525696 1755.201294,621.482361 
	C1805.468384,608.125732 1838.540405,577.314270 1848.962646,525.099731 
	C1852.100464,509.378784 1852.042847,493.406342 1850.356567,477.360016 
	C1846.449951,440.186279 1827.617188,413.534821 1794.802490,396.318573 
	C1781.440308,389.308105 1767.199219,384.870911 1752.474854,381.871552 
	C1717.369751,374.720734 1681.848999,373.187805 1646.154175,374.132263 
	C1645.631592,374.146088 1645.127197,374.837555 1644.075928,375.606598 
	C1644.075928,406.473938 1644.075928,437.736969 1644.075928,471.000000 
z"/>
<path fill="#030303" opacity="1.000000" stroke="none" 
	d="
M595.212280,366.525146 
	C575.588501,369.316498 558.273926,375.585266 542.517761,386.266174 
	C513.477905,405.951996 497.410187,433.482422 492.069916,467.820709 
	C489.588898,483.773895 488.806976,499.668579 492.629517,515.465027 
	C497.784393,536.767517 510.679626,553.073120 527.052734,566.860901 
	C545.328186,582.250732 566.345886,593.065186 588.313110,602.009277 
	C626.517029,617.564331 664.912964,632.647400 703.124390,648.184448 
	C730.769348,659.425171 756.570251,673.928223 778.475159,694.453796 
	C808.180786,722.288940 826.961609,755.703125 830.531250,797.056519 
	C832.824463,823.622864 831.523254,849.821838 823.106323,875.079895 
	C807.873840,920.790649 776.940369,952.913208 734.194214,974.214417 
	C707.310730,987.610901 678.460815,994.022339 648.960327,997.746460 
	C620.718933,1001.311584 592.333801,1001.413208 564.373718,995.879333 
	C544.839111,992.013062 525.683350,986.199036 506.405975,981.075623 
	C489.378845,976.550354 472.459564,971.614319 455.401611,967.212402 
	C450.321777,965.901489 444.934692,965.781067 439.052734,965.034485 
	C439.052734,927.779297 439.052734,890.638184 439.052734,852.908813 
	C441.937256,852.908813 444.726715,852.908813 447.715424,852.908813 
	C448.759338,860.982544 449.409515,868.923096 450.862427,876.713928 
	C455.641541,902.339966 471.926453,919.965698 492.171539,934.546204 
	C512.861328,949.446899 536.345825,957.494141 561.326660,961.379517 
	C588.132324,965.548828 615.053589,967.004089 641.888489,961.958557 
	C687.357056,953.409485 724.276550,931.586548 747.030823,890.162964 
	C763.505554,860.171082 768.243347,827.764160 759.607117,794.415527 
	C752.342468,766.363464 733.608948,746.130249 710.815918,729.395386 
	C695.173462,717.910645 678.063293,709.010437 660.102539,701.726440 
	C622.184692,686.348755 584.227051,671.068848 546.351379,655.588135 
	C519.390686,644.568604 493.994568,630.870239 472.079346,611.318665 
	C434.875946,578.127869 419.476013,536.622864 423.000427,487.108887 
	C425.955627,445.591309 441.668335,410.438599 472.168549,382.208954 
	C494.869446,361.198029 522.031982,348.100128 551.665100,339.988922 
	C600.683533,326.571503 649.868347,328.384003 699.074463,338.907654 
	C723.155701,344.057831 747.046387,350.291382 771.869385,350.971069 
	C773.473450,351.014954 775.063599,351.567474 777.018188,351.954254 
	C777.018188,385.430725 777.018188,418.593475 777.018188,452.498413 
	C773.893311,452.639008 771.087097,452.765289 767.928284,452.907410 
	C766.707520,445.401978 765.895142,438.486176 764.424561,431.713348 
	C759.253235,407.898346 745.454529,391.211151 722.928162,381.585876 
	C701.831848,372.571564 679.640625,368.062805 656.999207,366.745392 
	C636.760498,365.567810 616.403320,366.426941 595.212280,366.525146 
z"/>
<path fill="#030303" opacity="1.000000" stroke="none" 
	d="
M1042.668945,496.000916 
	C1042.669189,593.310852 1042.567871,689.620911 1042.731567,785.930481 
	C1042.780884,814.963196 1044.924072,843.779053 1053.475952,871.839966 
	C1069.651978,924.917542 1105.797974,955.620422 1159.553467,965.600708 
	C1189.873169,971.229858 1220.547241,971.461365 1250.844727,964.302917 
	C1295.710815,953.702332 1325.247559,926.077271 1340.022949,882.643677 
	C1348.808960,856.816345 1351.336426,829.841187 1351.542114,802.869080 
	C1352.124023,726.558655 1351.836304,650.241638 1351.865112,573.927185 
	C1351.886230,517.607544 1351.838013,461.287903 1351.883423,404.968323 
	C1351.895752,389.576477 1348.496094,375.255249 1339.173584,362.728760 
	C1333.607178,355.249023 1327.059692,349.303528 1316.132935,350.145294 
	C1315.928589,347.063690 1315.739502,344.210815 1315.509033,340.734680 
	C1351.226318,340.734680 1386.390747,340.734680 1422.323364,340.734680 
	C1422.496094,343.430481 1422.677002,346.251587 1422.862427,349.145325 
	C1421.386841,349.603180 1420.481812,350.140808 1419.589355,350.120758 
	C1411.516235,349.939606 1405.797485,353.939148 1400.947388,359.981018 
	C1390.437866,373.072418 1386.511597,388.272797 1386.423950,404.666809 
	C1386.299316,427.993835 1386.389404,451.321960 1386.389282,474.649628 
	C1386.388428,578.291077 1386.333862,681.932556 1386.422485,785.573914 
	C1386.447021,814.297058 1384.975708,842.819946 1378.238403,870.892883 
	C1373.858276,889.144043 1367.217041,906.484558 1357.893188,922.737915 
	C1336.261230,960.446716 1303.551270,983.478943 1261.607178,993.098450 
	C1208.860596,1005.195496 1155.898071,1005.074768 1103.161621,992.720032 
	C1039.552490,977.817932 1002.731689,935.973999 985.988831,874.556641 
	C978.127502,845.719177 976.616638,816.090637 976.596619,786.393494 
	C976.511963,660.757507 976.616760,535.121277 976.439514,409.485474 
	C976.426941,400.574371 975.618103,391.436401 973.475037,382.828278 
	C971.752869,375.911133 968.034302,369.262482 964.144287,363.169739 
	C958.933044,355.007385 951.826721,349.018219 940.593628,350.282440 
	C940.593628,346.915009 940.593628,344.064636 940.593628,340.673523 
	C986.851440,340.673523 1033.030762,340.673523 1079.738770,340.673523 
	C1079.738770,343.678070 1079.738770,346.491455 1079.738770,349.280304 
	C1060.683594,352.260803 1047.733521,366.656311 1044.188965,389.121094 
	C1043.206787,395.346069 1042.767944,401.715210 1042.735596,408.021576 
	C1042.586548,437.014038 1042.669312,466.007660 1042.668945,496.000916 
z"/>
<path fill="#030303" opacity="1.000000" stroke="none" 
	d="
M3705.910645,385.752075 
	C3712.938721,366.956482 3719.747314,348.907013 3727.273438,328.956116 
	C3729.187012,333.466248 3730.626953,336.514496 3731.795898,339.663513 
	C3773.130859,451.006714 3814.438721,562.359985 3855.753174,673.710815 
	C3887.114990,758.236816 3918.368164,842.803406 3949.982178,927.234863 
	C3954.040527,938.073486 3959.560547,948.438660 3965.152100,958.611877 
	C3973.405029,973.626892 3985.357178,983.353821 4004.420898,981.871765 
	C4004.584229,985.213623 4004.722168,988.027893 4004.889404,991.447998 
	C3956.088867,991.447998 3907.970947,991.447998 3859.336914,991.447998 
	C3859.336914,988.341064 3859.336914,985.545166 3859.336914,982.377075 
	C3862.786865,982.160217 3865.741455,982.099915 3868.665283,981.768799 
	C3881.025391,980.369141 3888.113525,972.775574 3887.435059,960.318481 
	C3887.078613,953.768738 3885.636230,947.036377 3883.370361,940.869080 
	C3854.919434,863.423706 3826.231445,786.065491 3797.578369,708.694519 
	C3797.012695,707.166687 3796.138184,705.752991 3795.351318,704.172852 
	C3737.919678,704.172852 3680.647461,704.172852 3622.846680,704.172852 
	C3616.074951,722.641357 3609.302246,740.990723 3602.616211,759.371704 
	C3581.350342,817.833801 3560.110107,876.305115 3538.887207,934.782837 
	C3537.526123,938.533081 3536.194092,942.314575 3535.190674,946.170410 
	C3530.169434,965.464783 3539.916260,980.009155 3560.062500,982.571106 
	C3560.204102,985.315796 3560.351562,988.175903 3560.525391,991.542969 
	C3524.063477,991.542969 3488.184814,991.542969 3451.530029,991.542969 
	C3451.390137,988.687866 3451.252686,985.878357 3451.081055,982.368225 
	C3467.712646,983.051636 3477.727295,973.325867 3485.101562,961.061707 
	C3492.260010,949.156311 3498.916748,936.688660 3503.805908,923.718567 
	C3571.050293,745.337891 3637.950439,566.827576 3704.937012,388.349854 
	C3705.171143,387.726135 3705.438965,387.115082 3705.910645,385.752075 
M3704.327393,475.485291 
	C3680.642090,540.024658 3656.956787,604.563965 3633.090576,669.596069 
	C3684.051758,669.596069 3733.808594,669.596069 3784.617188,669.596069 
	C3759.384277,601.188538 3734.459229,533.615356 3709.001709,464.598785 
	C3707.225586,468.689728 3706.059326,471.375366 3704.327393,475.485291 
z"/>
<path fill="#030303" opacity="1.000000" stroke="none" 
	d="
M2860.175781,355.278656 
	C2853.882324,353.038330 2848.235352,351.195923 2842.382324,349.286346 
	C2842.382324,346.616791 2842.382324,343.767548 2842.382324,340.605896 
	C2889.061523,340.605896 2935.262207,340.605896 2981.786621,340.605896 
	C2981.786621,343.658112 2981.786621,346.250702 2981.786621,348.828247 
	C2981.293457,349.268677 2980.892334,349.933167 2980.369141,350.049500 
	C2960.400146,354.492096 2950.618896,366.656281 2960.282715,392.526215 
	C2987.637207,465.751648 3014.781494,539.055420 3041.981445,612.338501 
	C3070.802246,689.988159 3099.587891,767.650757 3128.406982,845.301086 
	C3129.672119,848.710449 3131.116943,852.053101 3132.942383,856.576843 
	C3134.745117,852.336975 3136.251221,849.183228 3137.451660,845.916931 
	C3193.568359,693.246948 3249.659180,540.567383 3305.748291,387.887146 
	C3306.550293,385.703827 3307.356201,383.518433 3308.050537,381.299713 
	C3312.401611,367.394623 3307.915771,357.905792 3294.409668,352.739746 
	C3291.021484,351.443726 3287.452393,350.621368 3283.915039,349.566010 
	C3283.915039,346.571869 3283.915039,343.706970 3283.915039,340.497620 
	C3319.343994,340.497620 3354.253418,340.497620 3389.953857,340.497620 
	C3390.210449,343.144806 3390.485107,345.980438 3390.723877,348.444794 
	C3389.740967,349.278442 3389.292480,349.995911 3388.781982,350.043335 
	C3365.571533,352.200226 3351.525146,365.170380 3343.754639,386.683167 
	C3321.381104,448.626373 3298.609863,510.425873 3276.010254,572.287415 
	C3224.648193,712.879395 3173.295898,853.475098 3121.931396,994.066284 
	C3121.045410,996.491211 3120.058350,998.879028 3118.407227,1003.103943 
	C3116.506836,998.358704 3115.133789,995.113159 3113.896973,991.816528 
	C3039.130859,792.499084 2964.378906,593.176331 2889.613525,393.858765 
	C2883.780762,378.309113 2876.106201,364.115326 2860.175781,355.278656 
z"/>
<path fill="#0E0E0E" opacity="1.000000" stroke="none" 
	d="
M2092.097656,1195.406982 
	C2092.132812,1230.598145 2092.132812,1264.861328 2092.132812,1299.430054 
	C2087.179932,1299.430054 2082.577881,1299.430054 2077.353516,1299.430054 
	C2077.353516,1249.962036 2077.353516,1200.786987 2077.353516,1150.882080 
	C2082.507812,1150.882080 2087.666504,1150.882080 2094.634766,1150.882080 
	C2117.659180,1190.702026 2141.363037,1231.697510 2165.855957,1274.057007 
	C2168.000000,1264.717163 2165.618896,1256.718506 2165.813477,1248.790039 
	C2166.009521,1240.801636 2165.589355,1232.799805 2165.530518,1224.803101 
	C2165.468994,1216.472778 2165.516846,1208.141479 2165.516846,1199.810669 
	C2165.516846,1191.812988 2165.516846,1183.815308 2165.516846,1175.817627 
	C2165.516846,1167.519409 2165.516602,1159.221191 2165.516602,1150.542236 
	C2170.823486,1150.542236 2175.410645,1150.542236 2179.980225,1150.542236 
	C2181.938965,1157.535522 2182.392578,1287.483765 2180.439941,1299.259033 
	C2175.305420,1299.259033 2170.073730,1299.259033 2163.697266,1299.259033 
	C2140.204346,1258.587891 2116.343506,1217.279175 2092.482422,1175.970581 
	C2092.047363,1176.046265 2091.612305,1176.121948 2091.177246,1176.197632 
	C2091.472168,1182.291504 2091.767334,1188.385254 2092.097656,1195.406982 
z"/>
<path fill="#090909" opacity="1.000000" stroke="none" 
	d="
M2939.597168,1278.367310 
	C2920.667969,1248.546753 2919.260010,1217.533691 2931.306885,1185.977905 
	C2940.912354,1160.816528 2961.597900,1147.576782 2987.779541,1147.765869 
	C3014.851807,1147.961304 3033.334961,1161.605591 3043.336670,1185.951416 
	C3053.607910,1210.952515 3053.450928,1236.811035 3043.819092,1262.025757 
	C3024.216064,1313.344482 2963.249023,1312.233398 2939.597168,1278.367310 
M3015.152588,1276.245972 
	C3036.610107,1256.481079 3036.826904,1210.169312 3025.663818,1187.856445 
	C3017.713135,1171.964844 3005.344971,1162.336792 2987.100830,1162.417847 
	C2968.862549,1162.498901 2955.844482,1171.957153 2948.878174,1188.232300 
	C2938.291260,1212.965210 2938.333496,1238.262085 2949.737793,1262.807129 
	C2963.111572,1291.591431 2996.681641,1293.811890 3015.152588,1276.245972 
z"/>
<path fill="#090909" opacity="1.000000" stroke="none" 
	d="
M1377.190918,1220.436768 
	C1377.634033,1206.435181 1379.945435,1193.737793 1385.931152,1181.953735 
	C1397.169678,1159.828857 1414.933838,1147.842285 1440.093018,1147.759277 
	C1465.258789,1147.676270 1483.788452,1159.221436 1494.269897,1181.708496 
	C1507.813721,1210.765381 1507.496460,1240.611084 1493.341919,1269.356812 
	C1482.593018,1291.186523 1464.149048,1302.449585 1439.392822,1302.115234 
	C1415.054810,1301.786499 1397.813599,1289.922607 1386.699951,1268.743530 
	C1378.921387,1253.920288 1376.847656,1237.838501 1377.190918,1220.436768 
M1396.022949,1242.367554 
	C1399.264771,1251.025146 1401.338623,1260.377808 1405.991089,1268.195923 
	C1415.738159,1284.574951 1433.810059,1291.032959 1451.818359,1285.830200 
	C1465.666992,1281.829346 1474.256836,1271.923218 1479.626343,1259.108643 
	C1486.365234,1243.026123 1487.312378,1226.203613 1484.888550,1209.098389 
	C1483.423340,1198.757202 1480.285278,1189.012207 1474.248413,1180.362549 
	C1464.019165,1165.705566 1447.896118,1159.515015 1430.544678,1163.635498 
	C1412.630249,1167.889526 1403.406128,1180.788696 1398.325928,1197.175049 
	C1393.928345,1211.359375 1393.255493,1225.962524 1396.022949,1242.367554 
z"/>
<path fill="#080808" opacity="1.000000" stroke="none" 
	d="
M3207.019043,1152.613647 
	C3228.178955,1159.661011 3236.356201,1170.396240 3236.682617,1190.757690 
	C3237.012695,1211.354126 3227.751465,1224.807861 3208.397949,1231.824951 
	C3206.882812,1232.374268 3205.338135,1232.841797 3202.440918,1233.798218 
	C3215.236572,1255.670654 3227.691895,1276.961060 3240.707031,1299.208740 
	C3233.869629,1299.208740 3228.379883,1299.208740 3221.739014,1299.208740 
	C3209.877686,1278.637939 3197.612061,1257.366333 3185.082031,1235.635986 
	C3176.026855,1235.635986 3166.851318,1235.635986 3156.794922,1235.635986 
	C3156.794922,1256.930420 3156.794922,1277.761475 3156.794922,1299.144653 
	C3151.105469,1299.144653 3146.264160,1299.144653 3141.356445,1299.144653 
	C3139.537109,1292.453613 3138.979248,1164.399048 3140.893799,1150.311279 
	C3162.605225,1150.729126 3184.472656,1148.455200 3207.019043,1152.613647 
M3212.816162,1211.751343 
	C3213.831543,1210.442017 3215.018555,1209.231567 3215.836426,1207.808716 
	C3226.594727,1189.090942 3218.150146,1169.016235 3196.994141,1165.575562 
	C3184.091309,1163.477295 3170.745850,1164.099243 3157.268311,1163.484375 
	C3157.268311,1183.621704 3157.268311,1202.304810 3157.268311,1221.239136 
	C3168.252686,1221.239136 3178.526367,1221.636597 3188.753174,1221.114746 
	C3197.093262,1220.689209 3205.192139,1218.660645 3212.816162,1211.751343 
z"/>
<path fill="#0B0B0B" opacity="1.000000" stroke="none" 
	d="
M1182.210083,1224.000000 
	C1182.254761,1199.676758 1182.293945,1176.353394 1182.375122,1153.030273 
	C1182.377197,1152.439453 1182.840576,1151.850220 1183.317749,1150.716064 
	C1187.929810,1150.716064 1192.795044,1150.716064 1199.038818,1150.716064 
	C1199.038818,1171.291504 1199.038818,1192.039551 1199.038818,1213.136230 
	C1223.557983,1213.136230 1246.720337,1213.136230 1270.930664,1213.136230 
	C1270.930664,1192.235352 1270.930664,1171.717407 1270.930664,1150.696045 
	C1276.815063,1150.696045 1281.669800,1150.696045 1287.282227,1150.696045 
	C1287.282227,1199.978394 1287.282227,1249.378418 1287.282227,1299.252197 
	C1282.151001,1299.252197 1277.270508,1299.252197 1271.481812,1299.252197 
	C1271.481812,1276.018921 1271.481812,1252.813354 1271.481812,1228.907837 
	C1247.184692,1228.907837 1223.779297,1228.907837 1199.417236,1228.907837 
	C1199.417236,1252.251587 1199.417236,1275.423096 1199.417236,1299.159546 
	C1195.962524,1299.386841 1193.409180,1299.668945 1190.853516,1299.691040 
	C1188.271484,1299.713379 1185.687256,1299.477905 1182.210083,1299.312988 
	C1182.210083,1274.148193 1182.210083,1249.574097 1182.210083,1224.000000 
z"/>
<path fill="#090909" opacity="1.000000" stroke="none" 
	d="
M2312.283691,1280.179443 
	C2328.203369,1289.263672 2343.853516,1289.605835 2359.878906,1282.817139 
	C2365.302002,1280.519653 2368.172363,1277.229736 2367.794189,1270.673706 
	C2367.182861,1260.066406 2367.629883,1249.398071 2367.629883,1237.662354 
	C2356.766602,1237.662354 2346.295654,1237.662354 2335.263916,1237.662354 
	C2335.263916,1232.451660 2335.263916,1228.331543 2335.263916,1223.803711 
	C2351.131592,1223.803711 2366.612793,1223.803711 2382.970459,1223.803711 
	C2382.970459,1236.857544 2382.970459,1249.427002 2382.970459,1261.996460 
	C2382.970459,1265.991699 2382.405029,1270.085205 2383.079346,1273.963135 
	C2384.901855,1284.445435 2379.098877,1289.749878 2370.911621,1294.243652 
	C2333.792236,1314.618530 2289.103027,1297.516968 2275.802246,1257.390015 
	C2268.566162,1235.559570 2268.517822,1213.357056 2276.223145,1191.712158 
	C2290.689209,1151.075928 2328.571045,1142.628418 2355.350586,1149.941895 
	C2365.558105,1152.729370 2372.917969,1157.556030 2380.482178,1166.128784 
	C2379.187988,1167.822021 2377.858154,1169.648193 2376.434570,1171.398315 
	C2375.191162,1172.927002 2373.842773,1174.369873 2372.044189,1176.415527 
	C2370.373291,1175.116577 2368.893799,1173.983643 2367.432617,1172.827881 
	C2343.909180,1154.220947 2310.773926,1160.932007 2296.669189,1187.518799 
	C2287.922119,1204.006836 2286.754150,1221.754028 2289.527100,1239.979614 
	C2291.970459,1256.040527 2298.004150,1269.996582 2312.283691,1280.179443 
z"/>
<path fill="#0D0D0D" opacity="1.000000" stroke="none" 
	d="
M3351.903564,1164.549805 
	C3348.231934,1164.549927 3345.578369,1164.549927 3342.294434,1164.549927 
	C3342.294434,1180.788208 3342.294434,1196.643188 3342.294434,1213.425781 
	C3360.523926,1213.425781 3379.023193,1213.425781 3398.041748,1213.425781 
	C3398.041748,1218.544067 3398.041748,1222.747314 3398.041748,1227.954712 
	C3379.451416,1227.954712 3361.015137,1227.954712 3342.132812,1227.954712 
	C3342.132812,1247.429565 3342.132812,1265.913086 3342.132812,1285.275269 
	C3365.426270,1285.275269 3388.277588,1285.275269 3411.317383,1285.275269 
	C3411.317383,1290.357178 3411.317383,1294.556519 3411.317383,1299.234131 
	C3382.385010,1299.234131 3353.924072,1299.234131 3324.939697,1299.234131 
	C3324.939697,1249.609009 3324.939697,1200.483887 3324.939697,1150.757812 
	C3353.036865,1150.757812 3380.794189,1150.757812 3409.041992,1150.757812 
	C3409.041992,1155.343628 3409.041992,1159.513672 3409.041992,1164.549805 
	C3390.127197,1164.549805 3371.524658,1164.549805 3351.903564,1164.549805 
z"/>
<path fill="#080808" opacity="1.000000" stroke="none" 
	d="
M1641.391235,1150.364990 
	C1650.410278,1152.190552 1658.751587,1153.229248 1666.534790,1155.896362 
	C1678.764648,1160.086914 1685.947388,1169.097656 1688.713013,1181.942993 
	C1695.087769,1211.553467 1679.098877,1234.672974 1648.928955,1237.995483 
	C1636.419312,1239.372925 1623.744263,1239.249023 1610.271484,1239.846680 
	C1610.271484,1259.337280 1610.271484,1278.848633 1610.271484,1299.028809 
	C1604.317383,1299.028809 1599.218628,1299.028809 1593.645874,1299.028809 
	C1593.645874,1249.720337 1593.645874,1200.536621 1593.645874,1150.308350 
	C1609.439209,1150.308350 1624.951172,1150.308350 1641.391235,1150.364990 
M1655.247681,1167.046021 
	C1640.402710,1162.621460 1625.360840,1164.047363 1610.666748,1164.281982 
	C1610.666748,1185.276733 1610.666748,1205.013428 1610.666748,1225.163696 
	C1625.229370,1225.354614 1639.166138,1226.643066 1652.745605,1222.647705 
	C1666.028198,1218.739990 1671.900879,1210.797119 1672.860596,1196.364868 
	C1673.842651,1181.600464 1669.422363,1173.734985 1655.247681,1167.046021 
z"/>
<path fill="#070707" opacity="1.000000" stroke="none" 
	d="
M1794.149780,1281.888306 
	C1794.149780,1288.134766 1794.149780,1293.397827 1794.149780,1299.169678 
	C1788.477661,1299.169678 1783.620239,1299.169678 1778.134521,1299.169678 
	C1778.134521,1249.813477 1778.134521,1200.388672 1778.134521,1149.587158 
	C1797.215698,1150.262939 1816.204834,1149.823853 1834.924194,1151.862549 
	C1862.053345,1154.817261 1874.250122,1168.992065 1874.060791,1194.308716 
	C1873.877930,1218.773682 1859.206665,1234.985107 1833.699097,1237.938599 
	C1823.486084,1239.121216 1813.103882,1238.834717 1802.799805,1239.244385 
	C1800.211304,1239.347290 1797.626953,1239.555542 1794.149780,1239.770508 
	C1794.149780,1253.758545 1794.149780,1267.331787 1794.149780,1281.888306 
M1794.120361,1212.708496 
	C1794.120361,1216.617920 1794.120361,1220.527222 1794.120361,1225.025635 
	C1804.680298,1225.025635 1814.269897,1225.368774 1823.818115,1224.889404 
	C1829.065796,1224.625977 1834.444946,1223.558594 1839.413940,1221.839355 
	C1852.079346,1217.457764 1858.255493,1206.640991 1857.325684,1191.699219 
	C1856.428223,1177.281128 1850.133057,1169.434937 1836.447876,1166.138550 
	C1822.728638,1162.833984 1808.847290,1163.960938 1794.120361,1164.360962 
	C1794.120361,1180.277832 1794.120361,1195.524048 1794.120361,1212.708496 
z"/>
<path fill="#090909" opacity="1.000000" stroke="none" 
	d="
M2594.993652,1281.648438 
	C2606.902344,1287.153564 2618.463867,1289.059204 2630.659424,1286.096558 
	C2642.489990,1283.222412 2650.111084,1275.536011 2651.546143,1264.737061 
	C2652.971191,1254.013184 2648.425781,1245.389526 2637.341797,1239.709717 
	C2627.593506,1234.714355 2617.354004,1230.684570 2607.528809,1225.829346 
	C2601.000977,1222.603760 2594.491699,1219.144653 2588.543945,1214.976807 
	C2568.333008,1200.814087 2570.082275,1169.348389 2591.374023,1155.635742 
	C2609.816406,1143.758423 2637.123291,1145.155029 2656.148926,1159.379028 
	C2658.509766,1161.144043 2660.618652,1163.246094 2663.634521,1165.883057 
	C2660.726807,1169.400635 2658.069824,1172.614990 2655.033936,1176.287842 
	C2646.508301,1169.966797 2638.054199,1163.716797 2627.465088,1163.130737 
	C2620.619629,1162.751953 2613.393555,1162.994263 2606.860107,1164.823120 
	C2598.845459,1167.066650 2593.106201,1172.757324 2591.803467,1181.710571 
	C2590.407959,1191.303589 2593.690674,1199.118896 2602.051758,1203.734131 
	C2611.629150,1209.020874 2621.810303,1213.205933 2631.675293,1217.981201 
	C2638.245605,1221.161621 2644.892334,1224.239868 2651.208984,1227.877930 
	C2676.036377,1242.177124 2673.739014,1280.826538 2649.345947,1294.475342 
	C2632.251221,1304.040527 2614.458252,1304.268677 2596.266357,1298.609863 
	C2584.678467,1295.005249 2576.591797,1289.607544 2567.266357,1279.716187 
	C2570.373047,1276.215820 2573.565186,1272.619141 2576.613281,1269.184937 
	C2582.835693,1273.458252 2588.562744,1277.391235 2594.993652,1281.648438 
z"/>
<path fill="#090909" opacity="1.000000" stroke="none" 
	d="
M1066.825562,1240.942993 
	C1055.645264,1235.649048 1045.011719,1230.915894 1034.546631,1225.835693 
	C1028.585205,1222.941772 1022.697327,1219.795166 1017.123901,1216.220337 
	C993.974731,1201.372314 997.005676,1165.685669 1022.721313,1153.066162 
	C1041.532715,1143.834595 1072.182495,1145.851685 1090.386108,1166.298828 
	C1087.819824,1169.369141 1085.139648,1172.575684 1081.943726,1176.399414 
	C1073.573486,1169.865967 1065.026978,1164.431274 1054.563354,1162.932861 
	C1046.433105,1161.768677 1038.589966,1162.254272 1031.176514,1165.856689 
	C1015.652710,1173.400146 1013.500366,1192.221436 1027.353394,1202.469116 
	C1032.885376,1206.561279 1039.576416,1209.119629 1045.827026,1212.199707 
	C1056.846069,1217.629883 1068.456177,1222.067749 1078.884644,1228.447876 
	C1103.245361,1243.351685 1100.414185,1279.379150 1078.088501,1293.170166 
	C1071.737183,1297.093750 1064.227173,1300.048950 1056.883911,1301.288696 
	C1035.222656,1304.945801 1011.155701,1298.517700 994.647095,1280.133423 
	C996.051086,1278.240479 997.560181,1276.226074 999.046875,1274.195312 
	C1000.407776,1272.336548 1001.744934,1270.460327 1003.317261,1268.280518 
	C1006.990356,1271.278442 1009.417175,1273.432129 1012.016846,1275.351929 
	C1025.494995,1285.305420 1040.274536,1289.939575 1057.065674,1286.177124 
	C1067.185425,1283.909668 1075.206909,1278.765625 1077.663452,1268.233887 
	C1080.202881,1257.346558 1077.732910,1247.695435 1066.825562,1240.942993 
z"/>
<path fill="#0F0F0F" opacity="1.000000" stroke="none" 
	d="
M2786.493652,1231.999756 
	C2786.493652,1209.089233 2786.493652,1187.178833 2786.493652,1164.560791 
	C2770.933350,1164.560791 2756.392334,1164.560791 2741.270020,1164.560791 
	C2741.270020,1159.716431 2741.270020,1155.578979 2741.270020,1150.788818 
	C2776.892578,1150.788818 2812.355957,1150.788818 2848.585938,1150.788818 
	C2848.585938,1154.775391 2848.585938,1158.916260 2848.585938,1164.174316 
	C2834.146973,1164.174316 2819.377930,1164.174316 2803.721680,1164.174316 
	C2803.721680,1209.739380 2803.721680,1254.229126 2803.721680,1299.215698 
	C2797.694092,1299.215698 2792.584473,1299.215698 2786.493652,1299.215698 
	C2786.493652,1276.800171 2786.493652,1254.900024 2786.493652,1231.999756 
z"/>
<path fill="#050505" opacity="1.000000" stroke="none" 
	d="
M1978.552368,1186.001953 
	C1978.552368,1224.240356 1978.552368,1261.479370 1978.552368,1299.200684 
	C1972.804810,1299.200684 1967.975586,1299.200684 1962.524414,1299.200684 
	C1962.524414,1249.832520 1962.524414,1200.684937 1962.524414,1150.868652 
	C1967.285889,1150.868652 1972.108887,1150.868652 1978.421875,1150.868652 
	C1978.712769,1161.995850 1978.480225,1173.506348 1978.552368,1186.001953 
z"/>
<path fill="#F8F8F8" opacity="1.000000" stroke="none" 
	d="
M2168.686035,738.958862 
	C2159.875977,706.422668 2155.487061,674.060547 2158.328369,641.282410 
	C2167.067139,540.471313 2209.160889,458.243042 2294.885254,401.127747 
	C2334.118164,374.988037 2377.744385,364.552765 2424.623047,365.229706 
	C2501.846680,366.344940 2562.565186,401.359436 2612.558350,457.162140 
	C2659.706055,509.788544 2687.095215,572.135925 2694.221924,642.285645 
	C2703.622314,734.813293 2678.826416,817.397888 2614.508057,885.773438 
	C2568.151611,935.054016 2510.252930,961.763733 2442.375488,966.439392 
	C2387.795410,970.199036 2339.297363,954.123047 2295.263672,922.742920 
	C2234.416992,879.381104 2195.161621,820.586182 2172.104248,750.239563 
	C2170.965088,746.764954 2169.986572,743.237732 2168.686035,738.958862 
z"/>
<path fill="#F8F8F8" opacity="1.000000" stroke="none" 
	d="
M1644.075928,470.000000 
	C1644.075928,437.736969 1644.075928,406.473938 1644.075928,375.606598 
	C1645.127197,374.837555 1645.631592,374.146088 1646.154175,374.132263 
	C1681.848999,373.187805 1717.369751,374.720734 1752.474854,381.871552 
	C1767.199219,384.870911 1781.440308,389.308105 1794.802490,396.318573 
	C1827.617188,413.534821 1846.449951,440.186279 1850.356567,477.360016 
	C1852.042847,493.406342 1852.100464,509.378784 1848.962646,525.099731 
	C1838.540405,577.314270 1805.468384,608.125732 1755.201294,621.482361 
	C1743.747925,624.525696 1731.564331,625.760620 1719.675781,626.031250 
	C1694.770386,626.598206 1669.800659,627.030334 1644.075928,623.828735 
	C1644.075928,572.767883 1644.075928,521.883911 1644.075928,470.000000 
z"/>
<path fill="#F7F7F7" opacity="1.000000" stroke="none" 
	d="
M3704.610352,474.773132 
	C3706.059326,471.375366 3707.225586,468.689728 3709.001709,464.598785 
	C3734.459229,533.615356 3759.384277,601.188538 3784.617188,669.596069 
	C3733.808594,669.596069 3684.051758,669.596069 3633.090576,669.596069 
	C3656.956787,604.563965 3680.642090,540.024658 3704.610352,474.773132 
z"/>
<path fill="#F6F6F6" opacity="1.000000" stroke="none" 
	d="
M3014.629883,1276.759033 
	C2996.681641,1293.811890 2963.111572,1291.591431 2949.737793,1262.807129 
	C2938.333496,1238.262085 2938.291260,1212.965210 2948.878174,1188.232300 
	C2955.844482,1171.957153 2968.862549,1162.498901 2987.100830,1162.417847 
	C3005.344971,1162.336792 3017.713135,1171.964844 3025.663818,1187.856445 
	C3036.826904,1210.169312 3036.610107,1256.481079 3014.629883,1276.759033 
z"/>
<path fill="#F6F6F6" opacity="1.000000" stroke="none" 
	d="
M1395.927002,1241.508911 
	C1393.255493,1225.962524 1393.928345,1211.359375 1398.325928,1197.175049 
	C1403.406128,1180.788696 1412.630249,1167.889526 1430.544678,1163.635498 
	C1447.896118,1159.515015 1464.019165,1165.705566 1474.248413,1180.362549 
	C1480.285278,1189.012207 1483.423340,1198.757202 1484.888550,1209.098389 
	C1487.312378,1226.203613 1486.365234,1243.026123 1479.626343,1259.108643 
	C1474.256836,1271.923218 1465.666992,1281.829346 1451.818359,1285.830200 
	C1433.810059,1291.032959 1415.738159,1284.574951 1405.991089,1268.195923 
	C1401.338623,1260.377808 1399.264771,1251.025146 1395.927002,1241.508911 
z"/>
<path fill="#F2F2F2" opacity="1.000000" stroke="none" 
	d="
M3212.272949,1212.276489 
	C3205.192139,1218.660645 3197.093262,1220.689209 3188.753174,1221.114746 
	C3178.526367,1221.636597 3168.252686,1221.239136 3157.268311,1221.239136 
	C3157.268311,1202.304810 3157.268311,1183.621704 3157.268311,1163.484375 
	C3170.745850,1164.099243 3184.091309,1163.477295 3196.994141,1165.575562 
	C3218.150146,1169.016235 3226.594727,1189.090942 3215.836426,1207.808716 
	C3215.018555,1209.231567 3213.831543,1210.442017 3212.272949,1212.276489 
z"/>
<path fill="#F3F3F3" opacity="1.000000" stroke="none" 
	d="
M1655.985596,1167.347778 
	C1669.422363,1173.734985 1673.842651,1181.600464 1672.860596,1196.364868 
	C1671.900879,1210.797119 1666.028198,1218.739990 1652.745605,1222.647705 
	C1639.166138,1226.643066 1625.229370,1225.354614 1610.666748,1225.163696 
	C1610.666748,1205.013428 1610.666748,1185.276733 1610.666748,1164.281982 
	C1625.360840,1164.047363 1640.402710,1162.621460 1655.985596,1167.347778 
z"/>
<path fill="#F3F3F3" opacity="1.000000" stroke="none" 
	d="
M1794.120361,1211.739380 
	C1794.120361,1195.524048 1794.120361,1180.277832 1794.120361,1164.360962 
	C1808.847290,1163.960938 1822.728638,1162.833984 1836.447876,1166.138550 
	C1850.133057,1169.434937 1856.428223,1177.281128 1857.325684,1191.699219 
	C1858.255493,1206.640991 1852.079346,1217.457764 1839.413940,1221.839355 
	C1834.444946,1223.558594 1829.065796,1224.625977 1823.818115,1224.889404 
	C1814.269897,1225.368774 1804.680298,1225.025635 1794.120361,1225.025635 
	C1794.120361,1220.527222 1794.120361,1216.617920 1794.120361,1211.739380 
z"/>
</svg>